<svg id="Слой_1" data-name="Слой 1" xmlns="http://www.w3.org/2000/svg" viewBox="0 0 389.83 65.48"><defs><style>.cls-1{fill:#fff}</style></defs><path class="cls-1" d="M87.88 20.11a20.91 20.91 0 0 0-5.58.75L76 5.23h12.41a3.7 3.7 0 1 1 0 7.4h-6.63l2 5.23h4.6A8.93 8.93 0 1 0 88.41 0H68.19l15.87 39.06a4.29 4.29 0 0 0-.59 2.16 4.41 4.41 0 1 0 5.36-4.3l-4.54-11.16A15.88 15.88 0 1 1 72 41.32v-.47H45.53l2.12 5.22h19.7a21.1 21.1 0 1 0 20.53-26zm49.53 20.74h-12.68l-9.28-22.99h12.68l-2.12-5.22h-12.68l-3.01-7.42h17.9L126.11 0h-23.13l18.64 46.07h17.9l-2.11-5.22z"/><path class="cls-1" d="M64.37 17.86l-2.11-5.22H19.48l2.12 5.22h42.77zM0 12.64l2.11 5.22h6.95l-2.12-5.22H0zm15.23 14.03l2.11 5.23h6.95l-2.12-5.23h-6.94zm51.81 0H33.22l2.11 5.23h33.82l-2.11-5.23zM48.62 5.22L46.51 0h-16.8l2.11 5.22h16.8zM156.66 0h-23.13l16.53 40.85h-6.92l2.12 5.22h12.14L140.87 5.22h12.68l16.52 40.85h5.23L156.66 0zm77.06 5.22l16.52 40.85h18.04l-2.11-5.22h-12.82L236.83 0h-16.21l7.49 30.64L210.82 0h-16.21l16.52 40.85h-25.41L171.31 5.22h12.68l12.91 31.91h5.22L187.1 0h-23.13l18.64 46.07h35.86L201.95 5.22h6.53l23.05 40.85h5.65l-9.99-40.85h6.53zm81.41 35.63h-18.39L282.33 5.22h17.83L298.04 0h-23.05l18.64 46.07h23.61l-2.11-5.22zm4.05-35.63h32.86L349.92 0h-44.58l2.11 5.22h6.5l16.53 40.85h5.22L319.18 5.22zM380.44 0h-23.12L376 46.07h5.23l-9.27-22.91h12.68v.05h5.22zM369.8 17.94l-5.15-12.71h12.68l5.14 12.71z"/><path class="cls-1" d="M244.42 0l15 37.13h5.22l-7.78-19.27h12.68L281 46.07h5.22L267.55 0zm10.35 12.64l-3-7.41h12.67l3 7.41zm94.53 0h-12.15l-1.55-3.79h-5.23l15.06 37.22h23.13l-2.11-5.22h-17.91l-9.28-22.99h12.16l-2.12-5.22zM132 58.15l-1.37 3c-.14.32-.29.7-.29.7s-.15-.39-.3-.7l-1.33-3h-1.12l-.46 5.25h1l.23-3.12v-.9l.34.77 1.24 2.62h.86l1.2-2.63c.19-.4.33-.76.33-.76v.9l.23 3.12h1l-.45-5.25zm7.62-.15a3.34 3.34 0 0 0-2 .62l.4.74a2.59 2.59 0 0 1 1.47-.51 1 1 0 0 1 1.2 1.15v.1h-.27c-1.09 0-3.14.19-3.14 1.84a1.62 1.62 0 0 0 1.72 1.59 2 2 0 0 0 1.72-1.07 2.61 2.61 0 0 0 0 .41v.53h.94v-3.32a1.86 1.86 0 0 0-2.04-2.08zm1.07 3a1.58 1.58 0 0 1-1.41 1.67.89.89 0 0 1-1-.84c0-1 1.39-1 2.14-1h.26zm7.83 1.65a1.82 1.82 0 0 1-1.86-1.88 1.8 1.8 0 0 1 1.83-1.87 2.13 2.13 0 0 1 1.45.6l.48-.71a2.8 2.8 0 0 0-2-.76 2.75 2.75 0 1 0 0 5.5 3 3 0 0 0 2.1-.84l-.4-.74a2.38 2.38 0 0 1-1.6.7zm5.35-3.64h1.82v4.39h1v-4.39h1.84v-.86h-4.66v.86zM164.43 58a2.58 2.58 0 0 0-2.64 2.75 2.69 2.69 0 0 0 2.79 2.75 3.14 3.14 0 0 0 2-.75l-.43-.74a2.32 2.32 0 0 1-1.54.61 1.73 1.73 0 0 1-1.81-1.74h3.82a3.13 3.13 0 0 0 0-.42 2.24 2.24 0 0 0-2.19-2.46zm-1.56 2.16a1.53 1.53 0 0 1 1.54-1.39 1.28 1.28 0 0 1 1.27 1.39zM173.4 58a1.91 1.91 0 0 0-1.76 1 1.89 1.89 0 0 0 0-.39v-.47h-.94v7.33h1v-2.38a2.46 2.46 0 0 0 0-.46 1.93 1.93 0 0 0 1.63.9 2.45 2.45 0 0 0 2.37-2.75c0-1.63-.88-2.78-2.3-2.78zm-.23 4.62a1.65 1.65 0 0 1-1.48-1.85c0-1.33.72-1.89 1.51-1.89s1.49.74 1.49 1.88-.69 1.89-1.52 1.89zm9.12.03a1.82 1.82 0 0 1-1.86-1.88 1.8 1.8 0 0 1 1.83-1.87 2.13 2.13 0 0 1 1.45.6l.48-.71a2.79 2.79 0 0 0-2-.76 2.75 2.75 0 1 0 0 5.5 3 3 0 0 0 2.09-.84l-.4-.74a2.38 2.38 0 0 1-1.59.7zm8.47-2l1.75-2.5h-1.14l-1.43 2.12h-.73v-2.12h-1.01v5.25h1.01v-2.27h.75l1.57 2.27h1.19l-1.96-2.73v-.02zm7.5-2.65a3.34 3.34 0 0 0-2 .62l.4.74a2.59 2.59 0 0 1 1.48-.51 1 1 0 0 1 1.19 1.15v.1h-.27c-1.09 0-3.13.19-3.13 1.84a1.61 1.61 0 0 0 1.75 1.56 1.93 1.93 0 0 0 1.72-1.07 2.61 2.61 0 0 0 0 .41v.53h.94v-3.29a1.86 1.86 0 0 0-2.08-2.08zm1.07 3a1.58 1.58 0 0 1-1.41 1.67.89.89 0 0 1-1-.84c0-1 1.39-1 2.14-1h.26zm5.07-1.2a1.57 1.57 0 0 0 1.14 1.53 2.45 2.45 0 0 0-.24.32l-1.21 1.74h1.11l1.28-1.9h.89v1.9h1v-5.24h-2.09c-1.11 0-1.88.57-1.88 1.65zm3-.95v1.92h-.88a1 1 0 0 1-1.07-1c0-.67.43-.94 1.11-.94zm12.14 2.43c-.17.25-.42.62-.47.71a6.93 6.93 0 0 0 0-.71v-3.13h-1v5.25h1l2.27-3.13a7.92 7.92 0 0 0 .45-.7v3.83h1v-5.25h-1zm12.98 2.12h1v-4.39h2.58v4.39h1v-5.25h-4.58v5.25zm11.63-5.4a1.93 1.93 0 0 0-1.77 1 2.49 2.49 0 0 0 0-.39v-.47h-.93v7.33h1v-2.38a2.46 2.46 0 0 0 0-.46 2 2 0 0 0 1.63.9 2.46 2.46 0 0 0 2.38-2.75c-.01-1.63-.89-2.78-2.31-2.78zm-.23 4.62a1.65 1.65 0 0 1-1.49-1.85c0-1.33.73-1.89 1.52-1.89s1.48.74 1.48 1.88-.68 1.89-1.51 1.89zM253 58a2.75 2.75 0 1 0 2.83 2.74A2.73 2.73 0 0 0 253 58zm0 4.62a1.88 1.88 0 1 1 1.81-1.88 1.81 1.81 0 0 1-1.81 1.91zm9.38-1.97l1.75-2.5h-1.14l-1.43 2.12h-.74v-2.12h-1v5.25h1v-2.27h.76l1.57 2.27h1.19l-1.96-2.73v-.02zm7.5-2.65a3.34 3.34 0 0 0-2 .62l.4.74a2.56 2.56 0 0 1 1.47-.51A1 1 0 0 1 271 60v.1h-.27c-1.09 0-3.14.19-3.14 1.84a1.62 1.62 0 0 0 1.76 1.56 2 2 0 0 0 1.65-1.04 2.61 2.61 0 0 0 0 .41v.53h1v-3.32a1.87 1.87 0 0 0-2.12-2.08zm1.07 3a1.58 1.58 0 0 1-1.42 1.67.88.88 0 0 1-1-.84c0-1 1.39-1 2.14-1h.33zm4.65-1.99h1.83v4.39h.99v-4.39h1.84v-.86h-4.66v.86zm17.01 1.65a1.22 1.22 0 0 0 .75-1.15c0-.88-.7-1.35-1.75-1.35h-2.17v5.24h2.24c1.14 0 1.93-.52 1.93-1.49a1.24 1.24 0 0 0-1-1.25zm-2.17-1.81h1c.63 0 .93.25.93.72s-.3.8-.9.8h-1zm1.08 3.85h-1.08v-1.65h1.07c.7 0 1.08.31 1.08.83s-.34.82-1.07.82zm8.4-4.7a2.58 2.58 0 0 0-2.63 2.75 2.69 2.69 0 0 0 2.79 2.75 3.12 3.12 0 0 0 2-.75l-.42-.74a2.36 2.36 0 0 1-1.55.61 1.73 1.73 0 0 1-1.8-1.74h3.81a2.09 2.09 0 0 0 .05-.42 2.24 2.24 0 0 0-2.25-2.46zm-1.55 2.16a1.52 1.52 0 0 1 1.53-1.39 1.28 1.28 0 0 1 1.28 1.39zm8.45-.39c0 1.9-.41 2.67-1.18 2.78v.9c1.54-.08 2.15-1.3 2.15-3.68V59h1.54v4.4h1v-5.25h-3.52zM317.17 58a2.75 2.75 0 1 0 2.83 2.77 2.74 2.74 0 0 0-2.83-2.77zm0 4.62a1.88 1.88 0 1 1 1.83-1.85 1.81 1.81 0 0 1-1.82 1.88zm9.39.03a1.82 1.82 0 0 1-1.86-1.88 1.8 1.8 0 0 1 1.83-1.87 2.13 2.13 0 0 1 1.45.6l.48-.71a2.79 2.79 0 0 0-2-.76 2.75 2.75 0 1 0 0 5.5 3 3 0 0 0 2.09-.84l-.4-.74a2.38 2.38 0 0 1-1.59.7zm7.33-1.37c-.17.25-.42.62-.47.71a6.93 6.93 0 0 0 0-.71v-3.13h-1v5.25h1l2.27-3.13a7.92 7.92 0 0 0 .45-.7v3.83h1v-5.25h-1zm7.58 2.12h1.01v-4.39h2.57v4.39h1.01v-5.25h-4.59v5.25zm11.24-5.4a2.58 2.58 0 0 0-2.64 2.75 2.69 2.69 0 0 0 2.79 2.75 3.14 3.14 0 0 0 2-.75l-.43-.74a2.34 2.34 0 0 1-1.55.61 1.73 1.73 0 0 1-1.8-1.74h3.82a3.13 3.13 0 0 0 0-.42 2.24 2.24 0 0 0-2.19-2.46zm-1.56 2.16a1.53 1.53 0 0 1 1.54-1.39 1.28 1.28 0 0 1 1.31 1.42zm12.2-2.01h-3.55v1a6.31 6.31 0 0 1-.82 3.45h-.64v2.08h.94V63.4h3.89v1.25h.93v-2.08h-.75zm-1 4.42H360a6.62 6.62 0 0 0 .75-3.32V59h1.57zm8.02-4.57a2.75 2.75 0 1 0 2.83 2.74 2.73 2.73 0 0 0-2.83-2.74zm0 4.62a1.88 1.88 0 1 1 1.81-1.88 1.81 1.81 0 0 1-1.8 1.91zm10.02-1.96a1.22 1.22 0 0 0 .75-1.15c0-.88-.7-1.35-1.76-1.35h-2.17v5.24h2.24c1.15 0 1.93-.52 1.93-1.49a1.24 1.24 0 0 0-.99-1.25zm-2.17-1.81h.95c.64 0 .94.25.94.72s-.3.8-.9.8h-1zm1.08 3.85h-1.08v-1.65h1.07c.69 0 1.08.31 1.08.83s-.37.82-1.07.82z"/></svg>